<?xml version="1.0" encoding="UTF-8" standalone="no"?> <svg xmlns:dc="http://purl.org/dc/elements/1.1/" xmlns:cc="http://creativecommons.org/ns#" xmlns:rdf="http://www.w3.org/1999/02/22-rdf-syntax-ns#" xmlns:svg="http://www.w3.org/2000/svg" xmlns="http://www.w3.org/2000/svg" viewBox="0 0 1095.7987 485.15466" height="485.15466" width="1095.7987" xml:space="preserve" id="svg2" version="1.1"><metadata id="metadata8"></metadata><defs id="defs6"><clipPath id="clipPath18"><path id="path16" d="M 0,363.866 H 821.849 V 0 H 0 Z"></path></clipPath></defs><g transform="matrix(1.3333333,0,0,-1.3333333,0,485.15467)" id="g10"><g id="g12"><g clip-path="url(#clipPath18)" id="g14"><g transform="translate(707.0621,237.5688)" id="g20"><path id="path22" style="fill:#000000;fill-opacity:1;fill-rule:nonzero;stroke:none" d="m 0,0 c 8.85,-0.001 15.443,4.616 18.397,12.976 1.569,4.438 2.117,9.009 1.238,13.67 C 18.042,35.087 12.05,42.39 1.817,43.392 -8.09,44.363 -16.781,37.987 -19.244,28.312 -20.563,23.129 -20.149,18.014 -18.386,13.007 -15.461,4.696 -8.787,0.001 0,0 m 1.155,-12.75 c -11.272,0.165 -20.215,3.499 -26.938,11.653 -4.552,5.521 -7.025,11.972 -7.676,19.069 -0.751,8.178 0.677,15.926 5.05,23.004 4.967,8.039 12.288,12.647 21.435,14.366 5.956,1.119 11.92,0.896 17.79,-0.836 C 21.14,51.461 28.204,44.871 31.753,34.769 35.646,23.691 34.876,12.854 28.794,2.689 23.64,-5.928 15.893,-10.843 5.956,-12.265 4.062,-12.535 2.146,-12.653 1.155,-12.75"></path></g><g transform="translate(549.2409,250.8711)" id="g24"><path id="path26" style="fill:#000000;fill-opacity:1;fill-rule:nonzero;stroke:none" d="M 0,0 H 15.934 C 13.203,7.673 10.542,15.151 7.881,22.629 7.723,22.648 7.565,22.667 7.406,22.686 4.971,15.225 2.535,7.764 0,0 m -23.478,-24.364 c 8.943,22.551 17.703,44.637 26.512,66.848 h 10.623 c 8.529,-22.118 17.072,-44.272 25.675,-66.581 -0.538,-0.127 -0.828,-0.255 -1.119,-0.256 -3.836,-0.018 -7.674,0.027 -11.509,-0.049 -1.256,-0.024 -1.866,0.476 -2.266,1.604 -1.119,3.159 -2.307,6.294 -3.478,9.434 -0.331,0.89 -0.699,1.766 -1.067,2.69 H -3.79 c -1.495,-3.71 -2.982,-7.398 -4.466,-11.087 -0.208,-0.518 -0.3,-1.123 -0.632,-1.541 -0.354,-0.445 -0.922,-1.007 -1.406,-1.016 -4.22,-0.079 -8.442,-0.046 -13.184,-0.046"></path></g><g transform="translate(447.1573,250.9179)" id="g28"><path id="path30" style="fill:#000000;fill-opacity:1;fill-rule:nonzero;stroke:none" d="M 0,0 H 15.904 C 13.152,7.701 10.479,15.183 7.806,22.664 7.653,22.642 7.501,22.62 7.348,22.598 4.916,15.119 2.484,7.639 0,0 m 3.041,42.529 h 10.55 c 8.545,-22.156 17.094,-44.325 25.737,-66.738 -0.925,-0.093 -1.529,-0.203 -2.134,-0.207 -3.28,-0.017 -6.56,-0.014 -9.84,-0.006 -2.316,0.005 -2.316,0.013 -3.171,2.302 -1.119,2.992 -2.233,5.987 -3.357,8.978 -0.306,0.813 -0.645,1.615 -0.974,2.437 H -3.795 c -0.511,-1.24 -1.06,-2.545 -1.589,-3.858 -1.135,-2.815 -2.29,-5.623 -3.371,-8.459 -0.357,-0.938 -0.83,-1.429 -1.904,-1.415 -3.92,0.051 -7.84,0.028 -11.759,0.047 -0.22,0.001 -0.44,0.123 -0.967,0.281 8.811,22.219 17.596,44.372 26.426,66.638"></path></g><g transform="translate(656.6268,178.8308)" id="g32"><path id="path34" style="fill:#000000;fill-opacity:1;fill-rule:nonzero;stroke:none" d="M 0,0 C -0.156,-0.007 -0.312,-0.013 -0.467,-0.02 -2.894,-7.489 -5.321,-14.958 -7.804,-22.598 H 8.043 C 5.315,-14.935 2.658,-7.467 0,0 m 5.726,19.978 c 8.571,-22.229 17.145,-44.466 25.776,-66.852 -0.677,-0.105 -0.978,-0.191 -1.279,-0.192 -4.236,-0.009 -8.473,-0.006 -12.971,-0.006 -1.738,4.583 -3.483,9.183 -5.236,13.804 h -23.603 c -1.821,-4.494 -3.672,-9.061 -5.547,-13.689 h -13.714 c 0.101,1.625 24.684,64.081 26.36,66.935 z"></path></g><g transform="translate(399.8866,261.8349)" id="g36"><path id="path38" style="fill:#000000;fill-opacity:1;fill-rule:nonzero;stroke:none" d="m 0,0 c 3.37,-0.169 6.523,-0.206 9.626,0.803 2.331,0.758 3.819,2.219 4.415,4.596 0.672,2.682 0.727,5.394 0.134,8.075 -0.511,2.315 -1.857,4.019 -4.187,4.85 C 6.766,19.473 3.464,19.451 0,19.307 Z m -0.019,-11.018 v -12.235 -11.909 h -13.325 v 65.077 c 0.593,0.075 1.194,0.216 1.795,0.217 5.758,0.013 11.518,0.067 17.274,-0.025 3.438,-0.055 6.836,-0.546 10.142,-1.583 C 22.877,26.325 27.116,21.72 28.073,14.362 28.591,10.38 28.576,6.379 27.531,2.455 25.552,-4.978 20.039,-9.667 12.09,-10.548 9.318,-10.855 6.514,-10.886 3.724,-11.01 2.609,-11.059 1.491,-11.018 -0.019,-11.018"></path></g><g transform="translate(510.8392,191.4206)" id="g40"><path id="path42" style="fill:#000000;fill-opacity:1;fill-rule:nonzero;stroke:none" d="m 0,0 c -2.186,-3.13 -4.09,-5.858 -6.217,-8.904 -0.915,1.046 -1.572,1.967 -2.394,2.705 -2.721,2.444 -5.922,3.412 -9.533,2.703 -2.588,-0.508 -4.494,-2.058 -5.692,-4.369 -1.476,-2.847 -0.619,-6.051 2.207,-7.666 2.555,-1.46 5.288,-2.608 7.935,-3.907 2.576,-1.264 5.243,-2.38 7.693,-3.855 5.417,-3.261 8.095,-8.218 8.34,-14.503 0.113,-2.888 -0.074,-5.745 -0.934,-8.536 -2.522,-8.189 -8.098,-13.088 -16.396,-14.683 -10.797,-2.074 -20.16,2.309 -25.901,11.785 -0.077,0.126 -0.077,0.299 -0.18,0.729 2.729,2.552 5.559,5.198 8.436,7.889 0.817,-1.383 1.422,-2.608 2.209,-3.702 2.505,-3.478 5.742,-5.765 10.207,-5.777 3.684,-0.01 6.709,2.271 7.919,5.857 1.309,3.881 0.405,7.822 -2.705,9.893 -2.163,1.439 -4.61,2.521 -7.047,3.46 -3.818,1.472 -7.502,3.117 -10.806,5.582 -4.69,3.499 -6.327,8.318 -5.963,13.89 0.828,12.686 12.354,20.342 23.909,18.067 3.229,-0.636 6.395,-1.447 9.29,-3.01 C -3.751,2.637 -2.035,1.335 0,0"></path></g><g transform="translate(810.7239,191.1595)" id="g44"><path id="path46" style="fill:#000000;fill-opacity:1;fill-rule:nonzero;stroke:none" d="m 0,0 c -1.991,-2.857 -3.895,-5.59 -5.977,-8.579 -0.804,0.908 -1.382,1.67 -2.068,2.316 -2.792,2.631 -6.082,3.746 -9.897,3.039 -3.009,-0.559 -5.652,-3.123 -6.22,-5.946 -0.503,-2.502 0.275,-4.713 2.494,-5.975 2.56,-1.455 5.266,-2.652 7.92,-3.939 2.367,-1.148 4.823,-2.135 7.11,-3.422 6.098,-3.432 9.084,-8.74 9.187,-15.731 0.075,-5.086 -0.964,-9.837 -3.908,-14.071 -3.333,-4.794 -8.016,-7.5 -13.666,-8.491 -11.918,-2.091 -20.075,3.199 -25.68,11.814 -0.081,0.125 -0.085,0.299 -0.199,0.728 2.728,2.553 5.554,5.197 8.435,7.893 0.862,-1.433 1.511,-2.724 2.354,-3.872 2.432,-3.307 5.565,-5.494 9.822,-5.593 3.832,-0.09 6.933,2.168 8.173,5.839 1.343,3.977 0.362,7.944 -2.875,10.047 -2.114,1.374 -4.49,2.407 -6.854,3.32 -3.588,1.386 -7.055,2.929 -10.237,5.136 -4.703,3.262 -6.679,7.827 -6.577,13.369 0.229,12.499 11.351,21.468 23.678,19.034 2.951,-0.583 5.849,-1.547 8.68,-2.586 C -3.977,3.476 -1.937,2.033 0,0"></path></g><g transform="translate(611.7695,130.2681)" id="g48"><path id="path50" style="fill:#000000;fill-opacity:1;fill-rule:nonzero;stroke:none" d="m 0,0 h -7.854 c -8.614,22.179 -17.214,44.323 -25.907,66.706 h 14.542 C -13.996,52.377 -8.761,38.016 -3.313,23.07 1.872,37.917 6.865,52.211 11.891,66.6 H 26.012 C 25.844,64.739 3.07,6.405 0,0"></path></g><g transform="translate(763.062,160.5685)" id="g52"><path id="path54" style="fill:#000000;fill-opacity:1;fill-rule:nonzero;stroke:none" d="M 0,0 H -20.871 V -17.549 H 0.788 c 0.168,-3.85 0.126,-7.459 0.028,-11.162 h -35.13 V 36.402 H 0.721 V 25.407 H -20.88 V 11.146 H 0 Z"></path></g><g transform="translate(442.0907,160.5519)" id="g56"><path id="path58" style="fill:#000000;fill-opacity:1;fill-rule:nonzero;stroke:none" d="m 0,0 v -17.471 h 21.242 c 0.59,-2.008 0.649,-8.753 0.143,-11.205 H -13.412 V 36.423 H 21.527 V 25.532 H 0.362 C -0.212,23.67 -0.361,15.291 0.084,11.244 6.934,11.006 13.845,11.283 20.895,11.086 V 0 Z"></path></g><g transform="translate(640.6638,290.0223)" id="g60"><path id="path62" style="fill:#000000;fill-opacity:1;fill-rule:nonzero;stroke:none" d="m 0,0 v -15.396 c -0.531,0.4 -0.846,0.586 -1.098,0.835 -10.871,10.752 -28.275,6.711 -33.043,-8.658 -2.26,-7.286 -1.233,-14.258 2.855,-20.686 3.012,-4.736 7.286,-7.876 12.9,-8.724 5.636,-0.852 10.779,0.61 15.319,4.093 0.876,0.673 1.738,1.365 2.983,2.344 0.151,-2.798 0.059,-5.238 0.076,-7.671 0.017,-2.396 0.004,-4.792 0.004,-7.259 -3.318,-1.836 -6.844,-2.814 -10.439,-3.537 -14.091,-2.836 -32.767,6.014 -37.34,25.251 -3.525,14.83 2.738,30.572 15.269,38.213 C -21.993,5.219 -11.106,5.329 0,0"></path></g><g transform="translate(399.8665,160.5837)" id="g64"><path id="path66" style="fill:#000000;fill-opacity:1;fill-rule:nonzero;stroke:none" d="m 0,0 v -28.411 c -1.868,-0.52 -10.622,-0.596 -13.294,-0.131 V 36.11 c 1.648,0.523 30.377,0.69 33.792,0.175 V 25.451 H 0.179 V 11.183 H 19.196 V 0 Z"></path></g><g transform="translate(556.1077,196.9692)" id="g68"><path id="path70" style="fill:#000000;fill-opacity:1;fill-rule:nonzero;stroke:none" d="m 0,0 v -10.746 c -2.204,-0.496 -4.427,-0.176 -6.626,-0.233 -2.221,-0.058 -4.445,-0.013 -6.892,-0.013 v -53.776 c -1.909,-0.545 -10.716,-0.627 -13.454,-0.147 v 53.87 h -13.65 V 0 Z"></path></g><g transform="translate(492.9495,226.7529)" id="g72"><path id="path74" style="fill:#000000;fill-opacity:1;fill-rule:nonzero;stroke:none" d="m 0,0 v 65.175 c 2.186,0.017 4.314,0.04 6.441,0.048 2.155,0.009 4.31,0.002 6.803,0.002 0.194,-3.121 0.073,-6.13 0.094,-9.13 0.021,-2.96 0.005,-5.92 0.005,-8.88 v -9.12 -8.88 -9.119 c 0,-2.94 0,-5.879 0,-9.021 h 18.43 C 32.406,9.113 32.042,7.277 32.108,5.477 32.171,3.723 32.121,1.966 32.121,0.256 30.384,-0.363 4.044,-0.572 0,0"></path></g><g transform="translate(705.8231,143.0114)" id="g76"><path id="path78" style="fill:#000000;fill-opacity:1;fill-rule:nonzero;stroke:none" d="m 0,0 h 18.304 c 0,-3.78 0,-7.336 0.002,-10.893 -1.699,-0.45 -28.665,-0.573 -31.879,-0.123 v 64.962 h 12.891 c 0.047,-0.047 0.105,-0.099 0.156,-0.157 0.054,-0.059 0.127,-0.117 0.146,-0.188 0.041,-0.152 0.066,-0.311 0.075,-0.469 0.015,-0.239 0.016,-0.48 0.016,-0.719 C -0.268,35.153 -0.247,17.892 -0.223,0.632 -0.223,0.557 -0.172,0.482 0,0"></path></g><g transform="translate(664.7518,226.513)" id="g80"><path id="path82" style="fill:#000000;fill-opacity:1;fill-rule:nonzero;stroke:none" d="M 0,0 C -4.527,-0.03 -8.801,-0.032 -13.125,0 V 65.33 H 0 Z"></path></g><g transform="translate(574.3345,131.8347)" id="g84"><path id="path86" style="fill:#000000;fill-opacity:1;fill-rule:nonzero;stroke:none" d="m 0,0 h -12.883 c -0.521,1.819 -0.74,59.926 -0.268,64.885 1.67,0.496 10.303,0.602 13.151,0.135 z"></path></g><g transform="translate(516.4951,67.0518)" id="g88"><path id="path90" style="fill:#000000;fill-opacity:1;fill-rule:nonzero;stroke:none" d="m 0,0 v 37.13 h 5.5 v -51.413 c -6.677,6.758 -12.902,13.323 -19.18,19.835 -6.249,6.481 -12.501,12.958 -18.752,19.437 -0.158,-0.061 -0.317,-0.121 -0.475,-0.181 v -36.939 h -5.529 v 51.135 c 2.126,-1.915 3.78,-3.791 5.519,-5.571 1.844,-1.887 3.651,-3.811 5.477,-5.716 1.771,-1.847 3.546,-3.69 5.317,-5.537 1.827,-1.905 3.65,-3.812 5.476,-5.717 1.77,-1.848 3.541,-3.695 5.312,-5.542 C -9.508,9.016 -7.736,7.055 -5.839,5.224 -4.009,3.457 -2.051,1.824 0,0"></path></g><g transform="translate(609.0833,82.3989)" id="g92"><path id="path94" style="fill:#000000;fill-opacity:1;fill-rule:nonzero;stroke:none" d="m 0,0 c 2.883,-0.277 5.567,-0.083 8.201,0.622 2.341,0.626 4.104,2.078 4.47,4.501 0.304,2.011 0.281,4.138 -0.009,6.154 -0.32,2.231 -1.955,3.644 -4.064,4.321 C 5.829,16.486 2.977,16.432 0,16.171 Z m -0.005,-22.384 c 4.11,-0.465 8.971,-0.175 11.662,0.644 3.924,1.195 5.994,3.879 6.079,7.884 0.084,3.976 -1.884,6.68 -5.852,8.03 -3.86,1.313 -7.818,0.964 -11.889,0.892 z M 14.73,-1.133 c 0.336,-0.204 0.508,-0.35 0.708,-0.424 6.447,-2.389 9.442,-9.5 7.649,-16.177 -0.981,-3.651 -3.283,-6.271 -6.696,-7.654 -2.407,-0.975 -5.026,-1.761 -7.596,-1.927 -4.69,-0.305 -9.413,-0.087 -14.482,-0.087 -0.031,16.309 -0.011,32.552 -0.013,48.986 3.517,0 6.778,0.122 10.023,-0.044 2.049,-0.105 4.152,-0.402 6.1,-1.025 C 19.399,17.646 22.084,6.6 15.541,-0.215 15.28,-0.486 15.042,-0.779 14.73,-1.133"></path></g><g transform="translate(646.2586,81.3826)" id="g96"><path id="path98" style="fill:#000000;fill-opacity:1;fill-rule:nonzero;stroke:none" d="m 0,0 c 3.102,-0.22 5.941,-0.148 8.708,0.818 3.221,1.124 4.924,3.375 5.095,6.767 0.048,0.953 0.044,1.918 -0.051,2.865 -0.308,3.091 -1.978,5.171 -4.911,6.13 C 6.001,17.508 3.069,17.401 0,17.236 Z m 22.874,-26.685 c -0.713,-0.13 -0.87,-0.186 -1.025,-0.183 -1.912,0.042 -4.093,-0.463 -5.654,0.301 -1.462,0.714 -2.304,2.747 -3.351,4.248 -3.612,5.18 -7.187,10.387 -10.796,15.569 -0.461,0.663 -0.756,1.69 -2.168,1.224 v -20.913 h -5.343 c -0.497,1.667 -0.634,45.814 -0.156,48.774 0.13,0.084 0.257,0.236 0.39,0.241 4.712,0.19 9.43,0.348 14.091,-0.566 7.005,-1.374 10.612,-5.668 10.699,-12.636 0.092,-7.25 -3.684,-12.21 -10.47,-13.768 -0.452,-0.104 -0.89,-0.272 -1.628,-0.501 5.155,-7.289 10.192,-14.411 15.411,-21.79"></path></g><g transform="translate(717.5714,74.0099)" id="g100"><path id="path102" style="fill:#000000;fill-opacity:1;fill-rule:nonzero;stroke:none" d="M 0,0 C -2.663,6.47 -5.198,12.629 -7.927,19.259 -10.77,12.633 -13.419,6.461 -16.192,0 Z m -18.551,-5.3 c -1.688,-4.003 -3.427,-7.861 -4.928,-11.809 -0.656,-1.726 -1.6,-2.368 -3.373,-2.167 -1.093,0.124 -2.212,0.023 -3.333,0.023 0.192,1.875 20.824,49.157 22.438,51.463 7.32,-17.087 14.595,-34.069 21.984,-51.317 H 8.01 C 6.065,-14.536 4.107,-9.936 2.134,-5.3 Z"></path></g><g transform="translate(441.9365,74.2016)" id="g104"><path id="path106" style="fill:#000000;fill-opacity:1;fill-rule:nonzero;stroke:none" d="M 0,0 C 2.681,-0.537 14.083,-0.471 16.003,0.082 13.464,6.246 10.933,12.39 8.187,19.057 5.31,12.36 2.667,6.208 0,0 m 8.434,31.859 c 7.273,-16.972 14.546,-33.943 21.979,-51.288 -2.04,0 -3.692,0.003 -5.343,-0.001 -1.038,-0.003 -1.25,0.801 -1.562,1.543 -1.483,3.531 -2.981,7.056 -4.479,10.58 -0.248,0.586 -0.523,1.16 -0.819,1.815 H -2.413 c -1.914,-4.502 -3.871,-9.103 -5.863,-13.786 h -6.233 c 7.552,17.197 14.983,34.121 22.415,51.046 0.176,0.03 0.352,0.06 0.528,0.091"></path></g><g transform="translate(575.8212,93.2637)" id="g108"><path id="path110" style="fill:#000000;fill-opacity:1;fill-rule:nonzero;stroke:none" d="m 0,0 c -2.858,-6.666 -5.506,-12.845 -8.186,-19.097 3.273,-0.569 14.348,-0.429 15.995,0.17 C 5.265,-12.76 2.723,-6.599 0,0 m -16.483,-38.413 h -5.589 c -0.137,0.148 -0.2,0.195 -0.232,0.257 -0.036,0.07 -0.082,0.17 -0.057,0.229 7.23,16.597 14.464,33.192 21.706,49.784 0.147,0.336 0.381,0.634 0.77,1.269 7.399,-17.268 14.673,-34.245 22.115,-51.615 -2.045,0 -3.691,0.008 -5.338,-0.003 -1.049,-0.007 -1.257,0.809 -1.566,1.542 -1.49,3.528 -2.982,7.055 -4.477,10.58 -0.249,0.586 -0.517,1.164 -0.809,1.819 h -20.63 c -1.913,-4.5 -3.868,-9.098 -5.893,-13.862"></path></g><g transform="translate(422.9067,93.2638)" id="g112"><path id="path114" style="fill:#000000;fill-opacity:1;fill-rule:nonzero;stroke:none" d="m 0,0 c -5.396,5.038 -11.274,7.111 -17.978,6.222 -4.667,-0.62 -8.59,-2.91 -11.716,-6.449 -6.992,-7.916 -7.072,-19.231 -0.174,-27.143 3.813,-4.374 8.662,-6.706 14.467,-6.976 4.359,-0.203 7.606,1.094 15.375,6.112 0,-2.152 0.099,-4.103 -0.063,-6.033 -0.046,-0.542 -0.777,-1.145 -1.332,-1.505 -3.99,-2.584 -8.423,-3.895 -13.138,-3.888 -11.648,0.017 -20.479,7.09 -24.102,15.943 -6.316,15.433 4.264,33.083 20.844,34.885 5.874,0.638 11.244,-0.554 16.28,-3.567 C -0.492,6.975 0.164,6.314 0.031,4.959 -0.108,3.539 0,2.095 0,0"></path></g><g transform="translate(557.08,99.0175)" id="g116"><path id="path118" style="fill:#000000;fill-opacity:1;fill-rule:nonzero;stroke:none" d="m 0,0 h -11.737 c -0.015,-3.773 -0.036,-7.41 -0.044,-11.048 -0.007,-3.675 -10e-4,-7.35 -10e-4,-11.025 v -10.785 -11.101 c -1.921,-0.477 -3.686,-0.398 -5.734,-0.044 V 0.008 H -29.334 V 4.902 C -27.598,5.398 -4.737,5.587 0,5.132 Z"></path></g><path id="path120" style="fill:#000000;fill-opacity:1;fill-rule:nonzero;stroke:none" d="m 676.13,103.931 h 5.405 V 54.906 h -5.405 z"></path><g transform="translate(235.4912,262.077)" id="g122"><path id="path124" style="fill:#f63440;fill-opacity:1;fill-rule:nonzero;stroke:none" d="m 0,0 c 0,0 -16.114,73.747 -54.634,60.873 -38.519,-12.874 -62.137,-100.148 12.495,-151.644 0,0 112.766,8.584 115.174,62.061 C 75.946,35.911 0,0 0,0"></path></g><path id="path126" style="fill:#ffffff;fill-opacity:1;fill-rule:nonzero;stroke:none" d="m 196.59,234.836 h 5.974 v -4.517 h -5.974 z"></path><path id="path128" style="fill:#ffffff;fill-opacity:1;fill-rule:nonzero;stroke:none" d="m 243.655,234.836 h 6.12 v -3.934 h -6.12 z"></path><g transform="translate(219.9119,221.4301)" id="g130"><path id="path132" style="fill:#ffffff;fill-opacity:1;fill-rule:nonzero;stroke:none" d="M 0,0 -5.489,-14.134 H 12.578 L 6.265,0 Z"></path></g><g transform="translate(235.2103,207.2962)" id="g134"><path id="path136" style="fill:#ffffff;fill-opacity:1;fill-rule:nonzero;stroke:none" d="M 0,0 H 9.902 V 16.757 H 8.444 v 4.954 H 6.259 V 33.076 H 4.802 v 2.477 H 2.179 v -2.185 h -28.414 v 2.768 h -2.477 v -2.477 h -2.477 V 21.875 l -2.768,-0.018 v -4.955 h -1.931 V 0 h 0.911 11.488 l 7.115,16.771 h 8.704"></path></g><g transform="translate(212.7954,194.8963)" id="g138"><path id="path140" style="fill:#ffffff;fill-opacity:1;fill-rule:nonzero;stroke:none" d="M 0,0 -3.305,-10.914 H 22.444 L 19.694,0 Z"></path></g><g transform="translate(235.0137,195.4812)" id="g142"><path id="path144" style="fill:#ffffff;fill-opacity:1;fill-rule:nonzero;stroke:none" d="m 0,0 2.911,-11.597 4.564,-4.565 h 36.72 v 29.726 h -9.326 l -4.663,-2.915 0.292,6.213 H 27.292 V 60.774 H 17.384 V 33.963 h -4.08 V 9.484 h -51.873 v 24.188 h -2.914 V 60.774 H -52.266 V 15.603 l -2.786,0.008 0.072,-5.016 -4.28,2.677 -9.326,0.292 v -29.726 h 35.845 l 4.658,4.384 3.82,12.155 -4.654,2.937 -28.438,-0.732 -0.022,1.802 28.681,0.738 5.396,-3.07 h 22.487 c 4.049,2.42 5.692,3.186 5.982,3.037 1.283,-0.186 18.12,-0.084 29.258,0.03 l 0.01,-1.995 C 10.098,2.999 5.626,2.936 5.224,3.052"></path></g><g transform="translate(150.8236,137.7988)" id="g146"><path id="path148" style="fill:#1d1d1b;fill-opacity:1;fill-rule:nonzero;stroke:none" d="m 0,0 c 1.076,-0.763 1.485,-2.226 0.837,-3.375 -1.439,-2.556 -3.118,-4.407 -5.039,-5.557 -2.4,-1.439 -4.513,-2.157 -6.341,-2.157 -2.544,0 -5.284,0.591 -8.223,1.773 l -3.977,1.56 c -2.544,1.041 -4.444,1.56 -5.698,1.56 -2.025,0 -3.779,-1.046 -5.261,-3.139 -0.826,-1.167 -2.434,-1.481 -3.624,-0.689 l -4.058,2.701 c -1.252,0.834 -1.53,2.52 -0.697,3.772 3.574,5.373 7.537,8.059 11.888,8.059 2.58,0 5.393,-0.574 8.438,-1.722 l 3.333,-1.237 c 2.793,-1.041 4.693,-1.56 5.696,-1.56 2.124,0 3.736,0.824 4.837,2.471 0.801,1.198 2.529,1.341 3.704,0.507 z"></path></g><g transform="translate(53.7535,98.2617)" id="g150"><path id="path152" style="fill:#1d1d1b;fill-opacity:1;fill-rule:nonzero;stroke:none" d="M 0,0 -8.887,-48.46 H 8.887 Z m 18.468,-86.785 c -1.25,0 -1.945,0.695 -2.222,1.945 l -3.888,20.272 h -24.716 l -3.749,-20.272 c -0.278,-1.25 -0.972,-1.945 -2.222,-1.945 h -14.858 c -1.527,0 -2.221,0.833 -1.804,2.361 l 23.05,106.78 c 0.277,1.389 1.11,1.944 2.36,1.944 H 9.72 c 1.25,0 2.083,-0.555 2.36,-1.944 l 23.05,-106.78 c 0.278,-1.528 -0.277,-2.361 -1.943,-2.361 z"></path></g><g transform="translate(157.065,122.5615)" id="g154"><path id="path156" style="fill:#1d1d1b;fill-opacity:1;fill-rule:nonzero;stroke:none" d="m 0,0 c 1.389,0 2.223,-0.833 2.223,-2.222 v -106.641 c 0,-1.388 -0.834,-2.221 -2.223,-2.221 h -13.746 c -1.25,0 -2.083,0.555 -2.5,1.805 l -21.244,59.291 h -0.695 v -58.875 c 0,-1.388 -0.694,-2.221 -2.221,-2.221 h -14.442 c -1.388,0 -2.22,0.833 -2.22,2.221 V -2.222 c 0,1.389 0.832,2.222 2.22,2.222 h 13.747 c 1.249,0 2.083,-0.555 2.499,-1.805 l 21.107,-59.013 h 0.833 v 58.596 c 0,1.389 0.694,2.222 2.222,2.222 z"></path></g><g transform="translate(205.2505,29.3891)" id="g158"><path id="path160" style="fill:#1d1d1b;fill-opacity:1;fill-rule:nonzero;stroke:none" d="m 0,0 c 3.609,0 5.554,1.806 5.554,5.555 v 64.151 c 0,3.61 -1.945,5.554 -5.554,5.554 h -8.054 c -3.61,0 -5.553,-1.944 -5.553,-5.554 V 5.555 C -13.607,1.806 -11.664,0 -8.054,0 Z m -32.076,73.177 c 0,13.052 6.943,19.995 19.996,19.995 H 3.471 c 13.052,0 19.996,-6.943 19.996,-19.995 V 2.083 c 0,-13.052 -6.944,-19.995 -19.996,-19.995 H -12.08 c -13.053,0 -19.996,6.943 -19.996,19.995 z"></path></g><g transform="translate(278.1519,122.5615)" id="g162"><path id="path164" style="fill:#1d1d1b;fill-opacity:1;fill-rule:nonzero;stroke:none" d="m 0,0 c 13.052,0 19.995,-6.943 19.995,-19.995 v -14.719 c 0,-1.388 -0.694,-2.222 -2.222,-2.222 H 3.333 c -1.389,0 -2.223,0.834 -2.223,2.222 v 10.831 c 0,3.61 -1.804,5.554 -5.553,5.554 h -6.665 c -3.472,0 -5.555,-1.944 -5.555,-5.554 v -19.162 l 33.048,-10.83 c 2.36,-0.973 3.61,-2.5 3.61,-5.138 v -32.076 c 0,-13.052 -6.943,-19.995 -19.995,-19.995 h -15.552 c -12.914,0 -19.995,6.943 -19.995,19.995 v 14.58 c 0,1.527 0.833,2.221 2.222,2.221 h 14.441 c 1.528,0 2.221,-0.694 2.221,-2.221 v -10.692 c 0,-3.75 2.083,-5.554 5.555,-5.554 h 6.665 c 3.61,0 5.553,1.804 5.553,5.554 v 18.468 l -32.908,10.831 c -2.5,0.833 -3.749,2.499 -3.749,5.137 v 32.77 C -35.547,-6.943 -28.466,0 -15.552,0 Z"></path></g><g transform="translate(118.3179,268.3335)" id="g166"><path id="path168" style="fill:#1d1d1b;fill-opacity:1;fill-rule:nonzero;stroke:none" d="m 0,0 c 0,-9.344 -6.818,-16.415 -15.909,-17.93 v -0.505 C -6.818,-19.95 0,-27.021 0,-36.365 v -46.466 c 0,-23.738 -12.88,-36.365 -36.618,-36.365 h -29.293 c -22.981,0 -35.356,12.374 -35.356,35.355 v 8.333 c 0,3.283 1.769,5.051 5.051,5.051 h 24.244 c 3.284,0 5.051,-1.768 5.051,-5.051 v -10.353 h 28.283 c 3.284,0 5.051,1.767 5.051,5.05 v 35.86 c 0,6.566 -3.283,10.101 -10.101,10.101 h -29.799 c -3.284,0 -5.051,1.768 -5.051,5.051 v 23.233 c 0,3.283 1.767,5.05 5.051,5.05 h 29.799 c 6.566,0 10.101,3.536 10.101,9.849 v 36.112 c 0,3.284 -1.767,5.051 -5.051,5.051 H -66.921 V 39.143 c 0,-3.284 -1.767,-5.051 -5.051,-5.051 h -24.244 c -3.282,0 -5.051,1.767 -5.051,5.051 v 10.353 c 0,21.718 12.375,33.335 35.356,33.335 h 29.293 C -12.88,82.831 0,70.204 0,46.466 Z"></path></g><g transform="translate(192.8455,166.3306)" id="g170"><path id="path172" style="fill:#000000;fill-opacity:1;fill-rule:nonzero;stroke:none" d="m 0,0 0.085,0.075 -0.09,0.044 z m 55.574,111.767 c -0.063,0.491 -0.101,0.891 -0.175,1.282 -0.017,0.086 -0.165,0.14 -0.253,0.208 -1.56,-1.221 -1.771,-1.488 -2.209,-2.91 0.945,0.509 1.771,0.954 2.637,1.42 m -113.105,-16 c -0.004,0.327 0,0.655 -0.012,0.982 -0.159,4.313 -0.385,8.625 -0.468,12.94 -0.162,8.459 1.033,16.687 4.003,24.515 3.164,8.338 7.233,16.102 12.673,22.936 0.291,0.365 0.509,0.8 0.76,1.202 -17.159,-17.153 -22.373,-38.694 -16.956,-62.575 m 75.498,74.153 c 0.499,-0.372 0.987,-0.763 1.499,-1.111 7.299,-4.958 13.511,-11.232 18.764,-18.679 4.978,-7.056 8.362,-14.919 9.936,-23.696 0.404,-2.253 0.714,-4.527 1.075,-6.79 0.084,-0.526 0.196,-1.045 0.35,-1.854 0.891,0.648 1.607,1.175 2.328,1.694 0.784,0.566 1.573,1.125 2.287,1.635 -2.42,26.337 -18.585,43.289 -36.239,48.801 M 11.336,-8.181 c 0.114,-0.143 0.229,-0.285 0.343,-0.428 0.372,0.198 0.762,0.363 1.114,0.598 1.569,1.053 3.101,2.177 4.696,3.182 7.931,4.999 16.081,9.544 24.435,13.607 5.97,2.902 12.098,5.417 18.179,8.038 8.678,3.742 17.377,7.429 26.07,11.128 4.239,1.803 8.063,4.384 11.631,7.45 0.949,0.816 1.91,1.617 2.835,2.465 7.911,7.258 14.264,15.836 18.211,26.39 2.669,7.136 3.432,14.534 2.136,22.152 -0.088,0.515 -0.206,1.024 -0.331,1.639 -0.188,-0.201 -0.268,-0.246 -0.27,-0.296 -0.032,-0.692 -0.071,-1.384 -0.074,-2.077 -0.033,-7.011 -1.482,-13.698 -3.953,-20.114 C 113.314,57.652 108.649,51.019 102.912,45.258 98.105,40.429 92.695,36.549 87.04,33.06 79.007,28.104 70.612,23.968 62.215,19.841 51.329,14.489 40.4,9.243 29.546,3.815 25.511,1.796 21.591,-0.521 17.707,-2.876 15.775,-4.048 14.03,-5.596 12.229,-7.018 11.865,-7.305 11.63,-7.788 11.336,-8.181 m -1.72,2.667 c 2.001,1.53 3.783,3.128 5.757,4.352 3.919,2.428 7.859,4.853 11.942,6.919 9.678,4.897 19.444,9.584 29.175,14.356 9.094,4.46 18.224,8.837 27.01,14.012 5.321,3.133 10.466,6.575 15.148,10.79 9.93,8.941 16.527,20.083 18.593,34.201 0.902,6.16 0.554,12.199 -1.163,18.182 -1.007,3.51 -2.72,6.358 -5.22,8.781 -8.037,7.791 -17.461,11.895 -28.03,13.145 -3.232,0.382 -6.299,0.031 -9.264,-1.472 -4.433,-2.247 -8.888,-4.44 -13.329,-6.668 -0.511,-0.256 -0.988,-0.594 -1.48,-0.893 -0.102,-0.821 -0.298,-1.614 -0.769,-2.036 -0.729,-0.652 -1.359,0.338 -2.071,0.573 -1.886,-1.112 -3.815,-1.964 -5.681,-1.549 -0.88,-0.586 -1.488,-1.278 -2.152,-1.351 -0.633,-0.07 -1.324,0.506 -2.114,0.852 -0.859,-0.936 -1.742,-1.93 -2.658,-2.884 -0.901,-0.939 -1.35,-0.917 -2.232,0.003 -0.221,0.231 -0.442,0.472 -0.695,0.653 -1.171,0.837 -1.207,1.019 -0.674,2.505 0.229,0.639 0.447,1.316 0.505,1.993 0.35,4.118 0.223,8.212 -0.559,12.274 -1.32,6.855 -3.873,13.13 -7.461,18.88 -7.674,12.298 -17.717,20.949 -31.202,24.211 -3.616,0.874 -7.248,1.184 -10.948,0.695 -13.542,-1.79 -24.873,-8.077 -33.16,-20.164 -8.051,-11.743 -12.005,-25.115 -11.783,-39.83 0.155,-10.216 2.797,-19.801 7.089,-28.825 4.424,-9.301 9.699,-18.007 15.717,-26.14 4.881,-6.597 9.895,-13.078 14.957,-19.508 C -8.13,19.101 0.909,7.693 8.946,-4.617 9.13,-4.898 9.345,-5.153 9.616,-5.514 m 100.428,48.398 c 0.451,0.479 0.881,0.986 1.357,1.432 5.796,5.44 10.187,11.967 12.891,19.848 4.325,12.605 4.042,25.095 -0.689,37.48 -1.744,4.565 -4.349,8.479 -7.694,11.8 -3.376,3.351 -7.228,5.863 -11.403,7.785 -5.597,2.576 -11.44,4.059 -17.48,4.63 -5.518,0.521 -11.006,0.364 -16.44,-0.925 -2.298,-0.545 -5.984,-2.77 -7.866,-4.816 0.547,0.093 0.897,0.124 1.235,0.215 4.136,1.114 8.331,1.735 12.586,1.915 0.813,0.035 1.618,0.278 2.426,0.432 2.43,0.464 4.844,1.115 7.292,1.36 5.833,0.585 11.344,-0.7 16.422,-3.99 5.477,-3.548 9.697,-8.447 12.866,-14.483 0.632,-1.203 1.314,-2.383 2.051,-3.511 3.239,-4.962 5.304,-10.446 6.145,-16.483 1.399,-10.045 -0.546,-19.385 -4.945,-28.201 -2.233,-4.474 -4.844,-8.657 -7.89,-12.511 -0.441,-0.558 -1.071,-1.052 -0.849,-1.97 -0.005,-0.003 -0.01,-0.005 -0.015,-0.007 M -23.361,172.706 c -0.691,0.595 -1.342,0.057 -1.963,-0.146 -8.844,-2.9 -16.365,-8.097 -22.484,-15.725 -5.485,-6.838 -9.38,-14.678 -12.187,-23.216 -3.046,-9.268 -4.827,-18.808 -4.558,-28.678 0.49,-18.022 6.272,-33.996 15.941,-48.39 0.106,-0.157 0.29,-0.25 0.727,-0.615 -0.248,0.661 -0.33,0.922 -0.441,1.167 -4.485,9.979 -7.761,20.458 -10.544,31.13 -2.125,8.145 -3.319,16.452 -3.362,24.952 -0.04,7.841 1.209,15.405 3.89,22.663 2.404,6.508 5.796,12.378 9.84,17.798 4.724,6.329 10.21,11.628 17.039,15.079 2.704,1.366 5.431,2.676 8.148,4.012 l -0.012,0.127 z m 134.869,-47.663 -0.116,0.015 0.161,-0.043 c 0.357,-0.443 0.673,-0.941 1.077,-1.323 12.414,-11.731 18.917,-26.37 18.178,-44.588 -0.019,-0.49 0.042,-0.984 0.066,-1.477 0.269,0.331 0.394,0.65 0.447,0.984 0.922,5.806 1.023,11.632 0.166,17.452 -1.657,11.258 -6.724,20.131 -15.469,26.35 -1.424,1.012 -3.003,1.76 -4.51,2.63 m -25.914,3.713 c 9.101,-0.452 17.645,-3.124 25.712,-7.824 -0.61,0.749 -1.272,1.378 -1.972,1.951 -6.775,5.542 -14.364,7.677 -22.725,6.517 -0.365,-0.05 -0.967,0.153 -0.995,-0.627 -0.051,0.039 -0.101,0.078 -0.152,0.117 0.044,-0.044 0.088,-0.089 0.132,-0.134 m -95.185,44.886 c 0.926,-0.159 1.847,-0.402 2.778,-0.464 7.475,-0.505 14.649,-2.373 21.522,-5.642 1.051,-0.501 2.111,-0.979 3.167,-1.467 -0.427,0.587 -0.921,1.031 -1.48,1.325 -2.682,1.411 -5.375,2.799 -8.077,4.164 -5.75,2.905 -11.787,2.793 -17.883,2.021 -0.083,-0.045 -0.167,-0.09 -0.242,-0.13 0.066,0.059 0.14,0.126 0.215,0.193 m 114.52,-59.353 c 0.049,0.038 0.095,0.093 0.149,0.107 0.034,0.008 0.08,-0.047 0.121,-0.073 -0.093,0.009 -0.185,0.018 -0.278,0.027 -0.219,0.379 -0.363,0.87 -0.669,1.12 -2.978,2.432 -6.224,4.293 -9.875,5.132 -1.325,0.304 -2.675,0.797 -4.372,0.366 1.162,-0.394 2.05,-0.706 2.944,-0.997 4.199,-1.369 8.263,-3.084 11.98,-5.682 m -38.097,3.344 c -0.509,0.484 -1.073,0.294 -1.618,0.132 -1.218,-0.362 -2.444,-0.702 -3.638,-1.144 -1.241,-0.46 -2.539,-0.801 -3.712,-1.74 0.158,-0.512 0.306,-0.993 0.494,-1.605 1.11,0.605 2.058,1.15 3.027,1.644 1.828,0.932 3.668,1.835 5.503,2.75 -0.004,0.032 -0.009,0.064 -0.014,0.096 -0.014,-0.044 -0.028,-0.089 -0.042,-0.133 m -16.235,-3.376 c 0.687,0.403 1.373,0.807 2.06,1.211 1.317,0.711 1.317,0.711 1.721,1.907 -0.741,-0.605 -1.322,-1.079 -1.903,-1.553 -0.638,-0.537 -1.276,-1.075 -1.914,-1.612 -0.021,-0.018 -0.043,-0.035 -0.065,-0.053 0.034,0.033 0.067,0.067 0.101,0.1 M -8.999,4.935 C -9.027,4.906 -9.056,4.877 -9.084,4.849 c 0.035,0.017 0.07,0.034 0.105,0.051 -0.287,0.16 -0.573,0.321 -0.86,0.481 -0.372,0.62 -0.696,1.284 -1.124,1.854 -3.783,5.034 -7.581,10.055 -11.387,15.069 -0.481,0.634 -0.93,1.343 -1.796,1.777 0.094,-0.354 0.099,-0.512 0.169,-0.614 4.045,-5.873 8.102,-11.736 12.827,-16.987 0.384,-0.427 0.887,-0.724 1.334,-1.082 0.056,-0.615 0.48,-0.448 0.817,-0.463 M -1.885,2.387 C -1.909,1.682 -1.329,1.921 -1.029,1.724 -0.588,1.837 -0.422,1.629 -0.484,1.157 -0.482,1.151 -0.481,1.146 -0.48,1.14 -0.664,1.336 -0.848,1.532 -1.032,1.728 -1.337,1.933 -1.643,2.137 -1.948,2.342 -2.183,2.538 -2.418,2.735 -2.653,2.931 -2.872,3.149 -3.091,3.366 -3.31,3.584 -3.573,3.789 -3.836,3.993 -4.099,4.198 -4.174,4.238 -4.249,4.278 -4.324,4.317 -4.23,4.34 -4.136,4.362 -4.043,4.385 -4.061,4.319 -4.079,4.253 -4.097,4.187 -3.81,3.998 -3.524,3.808 -3.237,3.618 -3.021,3.402 -2.805,3.186 -2.588,2.97 -2.354,2.776 -2.12,2.581 -1.885,2.387 m 44.8,122.079 c 0.219,-0.126 0.438,-0.252 0.657,-0.378 -0.069,-0.324 -0.138,-0.648 -0.207,-0.972 0.179,-0.193 0.359,-0.386 0.538,-0.58 -0.003,-0.365 -0.006,-0.73 -0.01,-1.095 l 0.03,0.131 -0.06,-0.061 c -0.011,0.332 -0.022,0.664 -0.032,0.996 -0.177,0.198 -0.355,0.397 -0.532,0.595 0.071,0.321 0.142,0.643 0.213,0.964 -0.219,0.125 -0.439,0.25 -0.658,0.376 0.118,0.39 0.236,0.78 0.354,1.169 -0.257,0.63 -0.515,1.259 -0.772,1.888 -0.158,0.668 -0.273,1.354 -0.482,2.002 -2.133,6.615 -5.154,12.714 -8.834,18.435 -5.518,8.578 -12.924,14.407 -21.797,18.062 -5.18,2.134 -10.519,3.603 -16.045,4.15 -6.343,0.627 -12.652,0.503 -18.85,-1.315 -1.146,-0.336 -2.312,-0.804 -3.316,-1.485 -3.409,-2.314 -6.497,-5.085 -9.211,-8.342 -0.029,-0.01 -0.058,-0.02 -0.086,-0.03 0.045,0.016 0.09,0.032 0.134,0.049 0.61,0.321 1.256,0.578 1.823,0.974 4.868,3.396 10.12,5.741 15.747,7.111 4.74,1.153 9.534,1.233 14.358,1.153 6.083,-0.1 11.942,-1.19 17.585,-3.799 5.516,-2.551 10.376,-6.071 14.405,-10.94 5.912,-7.144 10.394,-15.263 13.601,-24.247 0.229,-0.64 0.524,-1.251 0.788,-1.876 0.159,-0.703 -0.027,-1.633 0.971,-1.782 -0.104,-0.385 -0.208,-0.769 -0.312,-1.153 m -77.112,-75.96 c 0.013,-0.227 0.026,-0.455 0.039,-0.682 0.198,-0.495 0.329,-1.041 0.604,-1.477 4.644,-7.385 9.299,-14.762 13.979,-22.119 0.465,-0.731 1.071,-1.372 1.68,-1.97 3.774,-3.706 7.573,-7.382 11.35,-11.083 0.657,-0.644 1.252,-1.365 1.875,-2.051 0.102,-0.027 0.203,-0.055 0.305,-0.083 -0.105,0.034 -0.209,0.068 -0.314,0.102 0.474,0.88 -0.304,1.259 -0.649,1.722 -2.365,3.169 -4.759,6.312 -7.177,9.432 -6.885,8.883 -13.785,17.753 -20.689,26.618 -0.274,0.351 -0.659,0.598 -0.992,0.893 -0.011,0.228 -0.022,0.456 -0.033,0.684 -0.012,0.054 -0.024,0.107 -0.036,0.161 0.02,-0.049 0.039,-0.098 0.058,-0.147 m -8.381,3.628 c 0.137,-0.252 0.273,-0.504 0.41,-0.757 -0.069,-0.143 -0.038,-0.255 0.091,-0.334 0.108,-0.164 0.216,-0.327 0.325,-0.49 0.018,-0.209 0.037,-0.418 0.056,-0.628 0.084,-0.265 0.168,-0.53 0.253,-0.795 0.309,-0.057 0.618,-0.113 0.928,-0.17 0.039,-0.216 0.079,-0.432 0.118,-0.647 0.114,-0.163 0.228,-0.326 0.342,-0.489 0.022,-0.21 0.044,-0.419 0.066,-0.628 0.046,-0.256 0.092,-0.512 0.138,-0.768 0.319,-0.073 0.638,-0.146 0.956,-0.219 0.073,-0.261 0.146,-0.522 0.219,-0.783 -0.002,-0.21 -0.004,-0.419 -0.006,-0.628 0.134,-0.158 0.268,-0.316 0.403,-0.474 0.266,-0.114 0.532,-0.227 0.798,-0.34 0.055,-0.251 0.11,-0.502 0.165,-0.753 -0.034,-0.234 -0.068,-0.468 -0.103,-0.703 0.432,-0.27 0.864,-0.54 1.296,-0.81 -0.003,-0.256 -0.005,-0.512 -0.007,-0.768 0.251,-0.48 0.438,-1.048 1.099,-0.958 -0.026,-0.264 -0.052,-0.528 -0.078,-0.792 0.245,-0.218 0.49,-0.437 0.735,-0.656 0.024,0.003 0.048,0.006 0.072,0.009 -0.037,0.018 -0.074,0.037 -0.111,0.055 -0.246,0.186 -0.492,0.372 -0.739,0.558 0.028,0.266 0.055,0.531 0.082,0.796 -0.373,0.316 -0.746,0.632 -1.119,0.948 0.015,0.263 0.029,0.526 0.044,0.789 -0.429,0.273 -0.857,0.546 -1.286,0.82 0.018,0.23 0.035,0.46 0.053,0.69 -0.034,0.255 -0.068,0.51 -0.102,0.764 -0.285,0.103 -0.57,0.205 -0.855,0.307 -0.127,0.161 -0.254,0.322 -0.381,0.483 -0.009,0.214 -0.018,0.429 -0.027,0.643 -0.053,0.256 -0.105,0.512 -0.158,0.769 -0.32,0.073 -0.641,0.146 -0.961,0.22 -0.064,0.259 -0.128,0.519 -0.192,0.779 -0.015,0.204 -0.029,0.407 -0.044,0.611 -0.119,0.162 -0.238,0.323 -0.357,0.484 -0.016,0.227 -0.033,0.453 -0.05,0.679 -0.306,0.056 -0.613,0.111 -0.919,0.167 -0.111,0.27 -0.221,0.54 -0.331,0.81 -0.017,0.197 -0.034,0.393 -0.052,0.589 -0.11,0.166 -0.22,0.332 -0.331,0.497 0.039,0.135 0.013,0.25 -0.079,0.346 -0.138,0.252 -0.276,0.504 -0.414,0.756 l 0.025,0.119 z m 86.366,80.273 c 0.017,0.029 0.034,0.058 0.051,0.086 -0.033,-0.007 -0.066,-0.015 -0.098,-0.022 -0.038,0.032 -0.076,0.065 -0.114,0.097 0.035,0.035 0.07,0.071 0.104,0.106 0.019,-0.089 0.038,-0.178 0.057,-0.267 M 89.5,25.498 c 0.173,0.079 0.345,0.158 0.518,0.237 0.55,0.639 1.676,0.649 1.69,1.873 0.223,0.095 0.446,0.19 0.669,0.285 0.199,-0.005 0.397,-0.011 0.595,-0.017 0.125,0.205 0.25,0.41 0.374,0.614 0.031,-0.037 0.062,-0.074 0.093,-0.112 -0.035,0.023 -0.069,0.046 -0.104,0.068 -0.111,-0.207 -0.221,-0.415 -0.331,-0.622 -0.208,10e-4 -0.415,0.002 -0.623,0.003 -0.221,-0.071 -0.443,-0.143 -0.664,-0.214 -0.364,-0.336 -0.752,-0.647 -1.085,-1.017 -0.233,-0.259 -0.39,-0.599 -0.58,-0.903 C 89.881,25.607 89.71,25.52 89.539,25.434 89.348,25.37 89.158,25.306 88.967,25.242 88.809,25.166 88.652,25.09 88.494,25.014 88.335,24.922 88.176,24.831 88.018,24.739 87.859,24.647 87.7,24.555 87.541,24.463 87.383,24.372 87.224,24.28 87.065,24.188 86.907,24.095 86.749,24.002 86.59,23.909 86.432,23.818 86.274,23.727 86.115,23.635 85.952,23.563 85.788,23.492 85.624,23.421 85.466,23.329 85.308,23.236 85.15,23.143 84.995,23.045 84.84,22.947 84.685,22.849 84.526,22.762 84.367,22.674 84.208,22.587 84.055,22.484 83.903,22.38 83.75,22.276 c -0.14,-0.12 -0.279,-0.24 -0.419,-0.361 -0.183,-0.109 -0.366,-0.219 -0.548,-0.329 -0.157,-0.11 -0.313,-0.22 -0.47,-0.33 C 82.212,21.172 82.111,21.089 82.01,21.006 81.794,20.869 81.578,20.732 81.361,20.595 80.743,20.557 80.125,20.519 79.507,20.48 79.384,20.304 79.262,20.128 79.139,19.952 78.952,19.898 78.765,19.845 78.578,19.791 78.456,19.627 78.335,19.463 78.213,19.298 78.037,19.245 77.86,19.193 77.684,19.14 77.586,18.975 77.487,18.811 77.389,18.646 77.161,18.5 76.933,18.353 76.705,18.207 c -0.447,0.018 -0.893,0.035 -1.339,0.053 -0.141,-0.137 -0.282,-0.274 -0.424,-0.411 -0.164,-0.086 -0.329,-0.171 -0.494,-0.257 -0.11,-0.16 -0.221,-0.321 -0.332,-0.481 -0.193,-0.15 -0.385,-0.3 -0.578,-0.45 -0.455,0.515 -0.943,0.173 -1.423,0.066 -0.138,-0.14 -0.277,-0.28 -0.416,-0.419 -0.152,-0.143 -0.304,-0.286 -0.456,-0.429 -0.724,0.237 -1.293,-0.094 -1.814,-0.6 C 69.268,15.19 69.107,15.102 68.946,15.014 68.17,14.729 67.395,14.444 66.62,14.159 66.196,14.031 65.765,13.93 65.351,13.772 59.919,11.685 54.481,9.617 49.063,7.488 44.539,5.709 40.029,3.888 35.537,2.014 34.308,1.502 33.168,0.733 31.987,0.082 31.856,-0.064 31.725,-0.211 31.593,-0.356 31.478,-0.523 31.364,-0.69 31.249,-0.857 c -0.014,0.035 -0.028,0.07 -0.042,0.105 -0.003,-0.043 -0.006,-0.086 -0.01,-0.129 0.126,0.186 0.252,0.371 0.378,0.557 0.183,0.04 0.366,0.08 0.549,0.121 1.37,0.515 2.749,1.003 4.108,1.551 9.487,3.827 18.971,7.661 28.45,11.509 0.704,0.285 1.368,0.69 2.051,1.039 0.736,0.375 1.473,0.75 2.209,1.125 0.155,0.1 0.31,0.2 0.465,0.3 0.603,0.207 1.207,0.414 1.81,0.62 0.151,0.144 0.302,0.288 0.453,0.432 0.141,0.144 0.282,0.288 0.423,0.431 0.483,-0.038 0.967,-0.077 1.45,-0.116 0.178,0.153 0.356,0.305 0.534,0.457 0.114,0.172 0.227,0.345 0.341,0.518 0.165,0.087 0.331,0.173 0.497,0.26 0.146,0.139 0.293,0.278 0.44,0.416 0.456,-0.039 0.913,-0.079 1.369,-0.118 0.215,0.139 0.429,0.278 0.643,0.417 0.097,0.19 0.194,0.379 0.291,0.568 0.174,0.052 0.348,0.104 0.522,0.156 0.127,0.166 0.255,0.332 0.382,0.498 0.185,0.053 0.369,0.107 0.554,0.16 0.136,0.159 0.272,0.317 0.407,0.476 0.616,0.054 1.232,0.109 1.847,0.163 0.198,0.125 0.395,0.249 0.593,0.373 0.109,0.1 0.218,0.199 0.327,0.298 0.156,0.109 0.311,0.217 0.467,0.325 0.181,0.105 0.361,0.211 0.542,0.316 0.141,0.122 0.282,0.244 0.423,0.366 0.153,0.104 0.307,0.208 0.46,0.313 0.159,0.087 0.318,0.174 0.478,0.261 0.154,0.1 0.308,0.2 0.462,0.299 0.159,0.091 0.318,0.181 0.477,0.271 0.165,0.068 0.329,0.136 0.494,0.204 0.158,0.091 0.316,0.182 0.474,0.273 0.158,0.092 0.317,0.185 0.475,0.277 0.159,0.091 0.318,0.182 0.477,0.273 0.159,0.093 0.318,0.185 0.476,0.277 0.159,0.092 0.318,0.183 0.477,0.274 0.158,0.079 0.316,0.158 0.473,0.238 0.185,0.067 0.37,0.134 0.555,0.201 M 43.137,134.695 c 0.142,-0.211 0.284,-0.423 0.426,-0.634 l 0.049,-0.123 -0.123,0.097 c -0.136,0.209 -0.271,0.418 -0.407,0.627 -0.136,0.138 -0.271,0.276 -0.407,0.415 0.411,1.056 -0.179,1.784 -0.689,2.539 -0.083,0.176 -0.167,0.352 -0.251,0.528 -0.082,0.175 -0.164,0.351 -0.246,0.526 -0.081,0.175 -0.163,0.351 -0.244,0.527 -0.084,0.174 -0.168,0.348 -0.252,0.523 -0.084,0.174 -0.169,0.348 -0.253,0.523 -0.086,0.173 -0.173,0.346 -0.259,0.519 -0.087,0.174 -0.173,0.347 -0.259,0.521 -0.067,0.189 -0.133,0.378 -0.2,0.567 -0.037,0.211 -0.074,0.421 -0.111,0.632 -0.119,0.169 -0.238,0.339 -0.357,0.508 -0.329,0.281 -0.659,0.563 -0.988,0.844 -0.111,0.268 -0.221,0.537 -0.331,0.805 -0.043,0.201 -0.085,0.403 -0.128,0.604 l -0.018,0.091 0.056,-0.061 c 0.045,-0.203 0.09,-0.406 0.135,-0.609 0.108,-0.267 0.217,-0.533 0.326,-0.8 0.33,-0.276 0.659,-0.552 0.989,-0.828 0.113,-0.177 0.228,-0.355 0.342,-0.532 0.046,-0.207 0.093,-0.414 0.139,-0.621 0.062,-0.193 0.123,-0.386 0.183,-0.579 0.081,-0.177 0.162,-0.353 0.242,-0.53 0.082,-0.176 0.163,-0.353 0.244,-0.529 0.083,-0.175 0.167,-0.349 0.25,-0.524 0.084,-0.174 0.168,-0.349 0.251,-0.523 0.087,-0.173 0.173,-0.346 0.259,-0.519 0.088,-0.172 0.175,-0.345 0.261,-0.518 0.088,-0.172 0.176,-0.345 0.264,-0.518 0.235,-0.85 0.47,-1.7 0.705,-2.549 0.134,-0.133 0.268,-0.266 0.402,-0.399 M 57.01,122.962 c 2.885,1.361 5.651,2.754 8.477,3.98 4.787,2.077 9.755,3.524 14.767,4.768 6.92,1.718 13.858,1.15 20.777,-0.046 6.62,-1.144 12.702,-3.806 18.13,-8.157 9.162,-7.345 14.016,-17.401 15.2,-29.682 1.502,-15.589 -2.679,-29.325 -11.363,-41.557 -1.326,-1.867 -2.669,-3.72 -3.985,-5.596 C 113.992,39.51 107.812,33.769 100.844,29.065 91.483,22.744 81.792,17.068 71.695,12.313 62.719,8.087 53.622,4.173 44.565,0.156 38.037,-2.739 31.49,-5.583 24.946,-8.435 c -3.423,-1.492 -6.912,-2.748 -10.522,-3.597 -0.842,-0.198 -1.63,-0.724 -2.416,-1.158 -1.402,-0.773 -2.7,-1.855 -4.44,-1.435 -0.322,0.078 -0.711,-0.255 -1.081,-0.328 -0.999,-0.199 -1.776,0.241 -1.766,1.311 0.018,1.839 -1.051,2.828 -2.175,3.65 -9.941,7.271 -17.988,16.671 -25.245,26.974 -4.505,6.395 -9.011,12.789 -13.536,19.166 -0.661,0.932 -1.409,1.792 -2.151,2.648 -6.407,7.387 -12.31,15.21 -17.155,23.946 -4.834,8.717 -8.173,18.097 -10.124,28.072 -2.854,14.586 -1.528,28.842 2.901,42.831 2.433,7.687 5.739,14.881 10.242,21.372 10.306,14.855 24.233,21.955 40.94,23.005 4.38,0.275 8.722,-0.16 13.034,-1.155 2.598,-0.6 5.277,-0.762 7.894,-1.275 14.481,-2.839 26.886,-9.729 36.16,-22.636 5.331,-7.418 8.728,-15.821 10.426,-25.073 0.288,-1.569 0.583,-3.137 0.879,-4.703 0.011,-0.054 0.082,-0.093 0.199,-0.218"></path></g></g></g></g></svg> 